#!OML:ASF H:\LiuWeirdWalks\Patient Classification 1\Patient 1\Session 1\male.ASF
:FULLY-SPECIFIED
:DEGREES
559
root 2.05546 18.0533 -12.599 0.333264 -3.38609 1.55583
lowerback 3.8145 -2.25346 -4.88116
upperback -0.912705 -3.19596 1.87899
thorax -2.70876 -1.49868 4.87111
lowerneck -14.0604 0.73071 5.81812
upperneck 20.8892 1.14402 -6.71582
head 8.91851 0.271987 -3.13914
rclavicle 2.30155e-015 1.19271e-014
rhumerus -43.855 -10.2602 -75.4281
rradius 29.0779
rwrist -7.70176
rhand -17.9679 -5.1791
rfingers 7.12502
rthumb 8.30129 -34.996
lclavicle 2.30155e-015 1.19271e-014
lhumerus -29.6878 -6.98746 87.0705
lradius 37.8423
lwrist 19.8946
lhand -12.7175 0.614102
lfingers 7.12502
lthumb 13.3655 30.1654
rfemur -24.8594 -2.96753 13.9344
rtibia 73.8051
rfoot -7.51224 -14.2252
rtoes -6.44157
lfemur -4.58811 -0.68737 -27.585
ltibia 21.8703
lfoot -9.35932 16.5452
ltoes -3.21809
560
root 2.06212 18.0459 -12.5691 0.229735 -3.43675 1.62705
lowerback 3.89864 -2.32587 -4.95545
upperback -0.866416 -3.2993 1.89038
thorax -2.69118 -1.55059 4.93267
lowerneck -14.0353 0.761928 5.84809
upperneck 20.8247 1.18106 -6.72659
head 8.89466 0.290831 -3.14208
rclavicle -1.82571e-014 -1.59028e-015
rhumerus -43.8729 -10.297 -75.4108
rradius 29.0976
rwrist -7.711
rhand -17.9864 -5.19981
rfingers 7.12502
rthumb 8.28349 -35.0174
lclavicle -1.82571e-014 -1.59028e-015
lhumerus -29.3835 -6.98202 87.1498
lradius 37.7209
lwrist 19.9703
lhand -12.7536 0.553792
lfingers 7.12502
lthumb 13.3307 30.1074
rfemur -25.5166 -2.85799 13.8925
rtibia 73.5535
rfoot -8.39511 -14.3599
rtoes -6.76116
lfemur -4.39141 -0.595517 -27.696
ltibia 21.9135
lfoot -9.44317 16.5822
ltoes -3.31357
561
root 2.06876 18.0381 -12.5393 0.129129 -3.48044 1.71165
lowerback 3.98509 -2.40335 -5.04438
upperback -0.821197 -3.41044 1.90024
thorax -2.67399 -1.60618 5.00151
lowerneck -14.0536 0.791483 5.86216
upperneck 20.7946 1.21567 -6.72392
head 8.89037 0.308019 -3.13901
rclavicle -1.40951e-014 -9.93923e-015
rhumerus -43.8727 -10.3351 -75.3969
rradius 29.1009
rwrist -7.7201
rhand -18.0133 -5.23324
rfingers 7.12502
rthumb 8.25745 -35.0519
lclavicle -1.40951e-014 -9.93923e-015
lhumerus -29.0845 -6.96459 87.229
lradius 37.6069
lwrist 20.0817
lhand -12.8191 0.497857
lfingers 7.12502
lthumb 13.2675 30.0556
rfemur -26.1594 -2.76023 13.8331
rtibia 73.2306
rfoot -9.22925 -14.4559
rtoes -7.01725
lfemur -4.19879 -0.519014 -27.8238
ltibia 21.9579
lfoot -9.53111 16.6289
ltoes -3.40078
562
root 2.07507 18.0304 -12.5102 0.0386558 -3.51424 1.7873
lowerback 4.06828 -2.48871 -5.13204
upperback -0.779333 -3.53186 1.91687
thorax -2.65642 -1.66688 5.07722
lowerneck -14.0197 0.817351 5.84299
upperneck 20.7619 1.24911 -6.6934
head 8.87515 0.32572 -3.12044
rclavicle 3.61477e-014 3.57812e-015
rhumerus -43.8649 -10.3558 -75.3935
rradius 29.1027
rwrist -7.7402
rhand -18.0515 -5.26969
rfingers 7.12502
rthumb 8.22067 -35.0898
lclavicle 3.61477e-014 3.57812e-015
lhumerus -28.7846 -6.92822 87.3012
lradius 37.4912
lwrist 20.1765
lhand -12.8626 0.443619
lfingers 7.12502
lthumb 13.2257 30.0041
rfemur -26.7928 -2.66923 13.7884
rtibia 72.8369
rfoot -10.0324 -14.5459
rtoes -7.2886
lfemur -4.0204 -0.458963 -27.9404
ltibia 22.0051
lfoot -9.6213 16.6798
ltoes -3.47248
563
root 2.08146 18.0222 -12.4814 -0.0449294 -3.53878 1.89422
lowerback 4.14772 -2.57832 -5.25022
upperback -0.744766 -3.66086 1.92459
thorax -2.64163 -1.73073 5.16133
lowerneck -14.0153 0.853874 5.85123
upperneck 20.7581 1.29676 -6.69007
head 8.87657 0.348925 -3.1151
rclavicle 5.89521e-015 2.22639e-014
rhumerus -43.8677 -10.3587 -75.3978
rradius 29.1067
rwrist -7.767
rhand -18.0696 -5.27202
rfingers 7.12502
rthumb 8.20317 -35.0928
lclavicle 5.89521e-015 2.22639e-014
lhumerus -28.4865 -6.87933 87.3645
lradius 37.3651
lwrist 20.2089
lhand -12.8825 0.383544
lfingers 7.12502
lthumb 13.2065 29.9452
rfemur -27.4185 -2.59747 13.7067
rtibia 72.3829
rfoot -10.7806 -14.6212
rtoes -7.63189
lfemur -3.8506 -0.411365 -28.0937
ltibia 22.0466
lfoot -9.70597 16.734
ltoes -3.53064
564
root 2.08734 18.0142 -12.4534 -0.115228 -3.55 1.98866
lowerback 4.22999 -2.67179 -5.36181
upperback -0.719695 -3.79503 1.93611
thorax -2.6372 -1.79671 5.24655
lowerneck -13.9781 0.898823 5.88644
upperneck 20.7482 1.356 -6.70808
head 8.87085 0.377947 -3.12004
rclavicle -5.24543e-014 7.55382e-015
rhumerus -43.8819 -10.3501 -75.4089
rradius 29.114
rwrist -7.80716
rhand -18.0858 -5.26489
rfingers 7.12502
rthumb 8.18755 -35.0863
lclavicle -5.24543e-014 7.55382e-015
lhumerus -28.1919 -6.83099 87.4209
lradius 37.2349
lwrist 20.1569
lhand -12.87 0.317991
lfingers 7.12502
lthumb 13.2185 29.8789
rfemur -28.0384 -2.53286 13.647
rtibia 71.863
rfoot -11.4552 -14.7151
rtoes -8.00868
lfemur -3.69731 -0.377223 -28.23
ltibia 22.0866
lfoot -9.7895 16.7805
ltoes -3.57851
565
root 2.09302 18.0064 -12.4258 -0.178572 -3.54937 2.09088
lowerback 4.31449 -2.76545 -5.48427
upperback -0.704939 -3.93056 1.94596
thorax -2.64338 -1.86261 5.33687
lowerneck -13.939 0.942002 5.91529
upperneck 20.7539 1.41355 -6.71974
head 8.86999 0.406356 -3.12224
rclavicle -2.23633e-016 2.38542e-015
rhumerus -43.9177 -10.3562 -75.4042
rradius 29.1171
rwrist -7.82995
rhand -18.0778 -5.23147
rfingers 7.12502
rthumb 8.19526 -35.0525
lclavicle -2.23633e-016 2.38542e-015
lhumerus -27.9092 -6.77048 87.4701
lradius 37.1117
lwrist 19.9622
lhand -12.7684 0.406153
lfingers 7.12502
lthumb 13.3165 29.9607
rfemur -28.6412 -2.4815 13.5802
rtibia 71.2785
rfoot -12.0622 -14.8217
rtoes -8.43079
lfemur -3.55071 -0.34999 -28.374
ltibia 22.1199
lfoot -9.86689 16.82
ltoes -3.62274
566
root 2.09856 17.9994 -12.3978 -0.245045 -3.55028 2.16287
lowerback 4.40075 -2.8551 -5.5753
upperback -0.692419 -4.05912 1.96418
thorax -2.65465 -1.92524 5.41825
lowerneck -13.8787 0.987585 5.98093
upperneck 20.7094 1.47313 -6.76736
head 8.84863 0.435257 -3.14168
rclavicle 1.89405e-014 -1.35174e-014
rhumerus -43.9636 -10.3915 -75.3714
rradius 29.0996
rwrist -7.80561
rhand -18.0496 -5.17155
rfingers 7.12502
rthumb 8.22246 -34.9916
lclavicle 1.89405e-014 -1.35174e-014
lhumerus -27.6302 -6.6965 87.5194
lradius 36.9774
lwrist 19.621
lhand -12.6079 0.552785
lfingers 7.12502
lthumb 13.4711 30.0971
rfemur -29.2096 -2.42404 13.5529
rtibia 70.6222
rfoot -12.614 -14.9547
rtoes -8.84639
lfemur -3.39519 -0.326714 -28.4837
ltibia 22.1471
lfoot -9.94016 16.861
ltoes -3.66829
567
root 2.10402 17.9932 -12.3697 -0.316473 -3.55142 2.21858
lowerback 4.48836 -2.94132 -5.64851
upperback -0.676642 -4.18215 1.98714
thorax -2.66441 -1.98549 5.4944
lowerneck -13.8006 1.01889 6.03169
upperneck 20.6429 1.51329 -6.80139
head 8.81496 0.455608 -3.1556
rclavicle -1.22377e-014 1.74931e-014
rhumerus -44.0088 -10.4516 -75.3179
rradius 29.0686
rwrist -7.76445
rhand -18.0252 -5.11624
rfingers 7.12502
rthumb 8.24599 -34.9353
lclavicle -1.22377e-014 1.74931e-014
lhumerus -27.3394 -6.6346 87.5761
lradius 36.8332
lwrist 19.2946
lhand -12.4184 0.826973
lfingers 7.12502
lthumb 13.6538 30.3591
rfemur -29.7385 -2.37033 13.5462
rtibia 69.8968
rfoot -13.1525 -15.0993
rtoes -9.20382
lfemur -3.22363 -0.304632 -28.5744
ltibia 22.1575
lfoot -10.0045 16.8987
ltoes -3.71404
568
root 2.10953 17.9879 -12.3413 -0.394749 -3.56366 2.25094
lowerback 4.57047 -3.02332 -5.69125
upperback -0.650245 -4.29733 2.01309
thorax -2.6626 -2.04298 5.55547
lowerneck -13.7376 1.04143 6.05865
upperneck 20.5716 1.54102 -6.81392
head 8.7813 0.470301 -3.1595
rclavicle 3.12589e-014 -5.56597e-015
rhumerus -44.0464 -10.5207 -75.2607
rradius 29.0257
rwrist -7.70125
rhand -18.0012 -5.03275
rfingers 7.12502
rthumb 8.26915 -34.8509
lclavicle 3.12589e-014 -5.56597e-015
lhumerus -27.0316 -6.56275 87.6316
lradius 36.6768
lwrist 18.9859
lhand -12.2438 1.04239
lfingers 7.12502
lthumb 13.8221 30.5632
rfemur -30.2263 -2.30904 13.5684
rtibia 69.1024
rfoot -13.6756 -15.2573
rtoes -9.43695
lfemur -3.02981 -0.282102 -28.639
ltibia 22.1451
lfoot -10.0581 16.9395
ltoes -3.76359
569
root 2.11529 17.9834 -12.3121 -0.477318 -3.58553 2.28502
lowerback 4.64345 -3.10023 -5.73078
upperback -0.616501 -4.40497 2.03885
thorax -2.64899 -2.09742 5.61333
lowerneck -13.7283 1.05341 6.08161
upperneck 20.5095 1.55485 -6.83637
head 8.75977 0.476284 -3.1682
rclavicle -1.22501e-014 1.59028e-015
rhumerus -44.078 -10.5952 -75.1966
rradius 28.9784
rwrist -7.63817
rhand -17.9855 -4.96446
rfingers 7.12502
rthumb 8.28432 -34.782
lclavicle -1.22501e-014 1.59028e-015
lhumerus -26.7179 -6.50346 87.7014
lradius 36.5137
lwrist 18.7726
lhand -12.1348 1.20783
lfingers 7.12502
lthumb 13.9271 30.7214
rfemur -30.6774 -2.24923 13.5874
rtibia 68.2492
rfoot -14.1961 -15.4078
rtoes -9.53527
lfemur -2.8095 -0.249495 -28.7051
ltibia 22.0956
lfoot -10.0978 16.9717
ltoes -3.8163
570
root 2.12103 17.9802 -12.2829 -0.555614 -3.60978 2.30985
lowerback 4.71781 -3.17935 -5.76595
upperback -0.583212 -4.51529 2.07018
thorax -2.63586 -2.15324 5.67487
lowerneck -13.7481 1.0616 6.0636
upperneck 20.4763 1.56561 -6.82775
head 8.75278 0.480365 -3.16036
rclavicle 5.71506e-016 1.11319e-014
rhumerus -44.1029 -10.6495 -75.1417
rradius 28.9289
rwrist -7.57516
rhand -17.965 -4.8861
rfingers 7.12502
rthumb 8.30407 -34.7029
lclavicle 5.71506e-016 1.11319e-014
lhumerus -26.4071 -6.43725 87.7728
lradius 36.3492
lwrist 18.6314
lhand -12.0558 1.27869
lfingers 7.12502
lthumb 14.0033 30.787
rfemur -31.1014 -2.19162 13.6199
rtibia 67.34
rfoot -14.6926 -15.5541
rtoes -9.5719
lfemur -2.57339 -0.20889 -28.7573
ltibia 22.0079
lfoot -10.1226 16.9847
ltoes -3.87286
